<?xml version="1.0" encoding="iso-8859-1"?>
<!-- Generator: Adobe Illustrator 19.0.0, SVG Export Plug-In . SVG Version: 6.00 Build 0)  -->
<svg version="1.1" id="Layer_1" xmlns="http://www.w3.org/2000/svg" xmlns:xlink="http://www.w3.org/1999/xlink" x="0px" y="0px"
	 viewBox="0 0 512.001 512.001" style="enable-background:new 0 0 512.001 512.001;" xml:space="preserve">
<path style="fill:#CEE8FA;" d="M272.183,432.179v-14.738c0-71.008-58.098-129.106-129.106-129.106l0,0
	C72.07,288.335,13.972,346.432,13.972,417.44v14.738c0,22.049,17.875,39.923,39.923,39.923h178.364
	C254.31,472.102,272.183,454.227,272.183,432.179z"/>
<g>
	<path style="fill:#2D527C;" d="M232.261,486.074H53.895C24.177,486.074,0,461.897,0,432.178V417.44
		c0-78.894,64.185-143.078,143.078-143.078c78.894,0,143.079,64.185,143.079,143.078v14.738
		C286.157,461.897,261.979,486.074,232.261,486.074z M143.078,302.307c-63.485,0-115.133,51.65-115.133,115.135v14.738
		c0,14.309,11.642,25.95,25.95,25.95h178.366c14.31,0,25.952-11.642,25.952-25.95v-14.738
		C258.212,353.956,206.563,302.307,143.078,302.307z"/>
	<path style="fill:#2D527C;" d="M143.078,300.749c-59.579,0-108.05-48.471-108.05-108.05S83.499,84.651,143.078,84.651
		s108.048,48.469,108.048,108.048S202.656,300.749,143.078,300.749z M143.078,112.595c-44.17,0-80.105,35.935-80.105,80.104
		c0,44.17,35.935,80.105,80.105,80.105c44.169,0,80.104-35.935,80.104-80.105C223.182,148.53,187.248,112.595,143.078,112.595z"/>
	<path style="fill:#2D527C;" d="M333.189,248.913c-3.082,0-6.194-0.672-9.122-2.05c-7.952-3.739-12.759-11.822-12.247-20.592
		l1.787-30.493h-10.704c-14.623,0-26.519-11.897-26.519-26.518V52.444c0-14.622,11.897-26.518,26.519-26.518h182.58
		c14.623,0,26.518,11.897,26.518,26.518V169.26c0,14.622-11.896,26.518-26.518,26.518h-18.54c-7.715,0-13.972-6.257-13.972-13.972
		s6.257-13.972,13.972-13.972h17.113V53.87H304.328v113.964h24.094c3.848,0,7.525,1.587,10.163,4.386
		c2.641,2.8,4.009,6.563,3.784,10.404l-1.692,28.906l42.84-39.942c2.588-2.412,5.991-3.753,9.528-3.753h18.459
		c7.715,0,13.972,6.257,13.972,13.972s-6.257,13.972-13.972,13.972h-12.955l-50.814,47.375
		C343.676,246.938,338.473,248.912,333.189,248.913z"/>
</g>
<g>
</g>
<g>
</g>
<g>
</g>
<g>
</g>
<g>
</g>
<g>
</g>
<g>
</g>
<g>
</g>
<g>
</g>
<g>
</g>
<g>
</g>
<g>
</g>
<g>
</g>
<g>
</g>
<g>
</g>
</svg>
